# xmcd
#
# Track frame offsets: 
#        150
#        14617
#        30358
#        47511
#        61667
#        75555
#        86780
#        102700
#        117480
#        130430
#
# Disc length: 1980 seconds
#
# Revision: 0
# Processed by: cddbd v1.5.2PL0 Copyright (c) Steve Scherf et al.
# Submitted via: ExactAudioCopy v0.99pb4
#
DISCID=7f07ba0a
DTITLE=Red River Opry - Red River Opry Vol. 2
DYEAR=1993
DGENRE=Corporate Country
TTITLE0=Queen of Denial
TTITLE1=Dance With Me
TTITLE2=Down On My Knees
TTITLE3=Mama's Got the Know How
TTITLE4=I Love You Arizona
TTITLE5=Homegrown Love
TTITLE6=Tell Me Why
TTITLE7=Sacred Ground
TTITLE8=Lonesome Standard Time
TTITLE9=Amazing Grace
EXTD=
EXTT0=
EXTT1=
EXTT2=
EXTT3=
EXTT4=
EXTT5=
EXTT6=
EXTT7=
EXTT8=
EXTT9=
PLAYORDER=
